<?xml version="1.0" encoding="UTF-8"?>
<svg version="1.1" xmlns="http://www.w3.org/2000/svg" width="439" height="432">
<path d="M0 0 C3.62114581 2.15727835 5.39280682 4.16150286 7 8 C7.28520203 10.08122253 7.28520203 10.08122253 7.3347168 12.33666992 C7.36936287 13.61794014 7.36936287 13.61794014 7.40470886 14.9250946 C7.41939713 15.85086807 7.43408539 16.77664154 7.44921875 17.73046875 C7.47095657 18.71195389 7.4926944 19.69343903 7.51509094 20.70466614 C7.5590852 22.80196001 7.5982672 24.89935942 7.63305664 26.99682617 C7.68559402 30.07579917 7.75641713 33.15389187 7.83007812 36.23242188 C8.19727924 53.8428412 7.64991027 71.40363585 7 89 C8.72315681 88.99666908 8.72315681 88.99666908 10.48112488 88.99327087 C21.35230497 88.97292414 32.22348115 88.95797258 43.09467602 88.94818783 C48.68251024 88.94298816 54.27032898 88.93594397 59.8581543 88.92456055 C65.25926679 88.91362741 70.66036448 88.90770124 76.0614872 88.90512276 C78.113358 88.90328719 80.16522808 88.8997031 82.21709251 88.89426994 C116.48651147 88.80720655 116.48651147 88.80720655 123.74609375 95.64453125 C128.52800059 100.90806899 130.52331428 105.84971418 131 113 C130.16708818 125.42426797 119.84469929 134.7646978 112.328125 143.921875 C109.33425405 147.57570373 106.4043168 151.27480514 103.5 155 C99.6054724 159.99132766 95.63536422 164.91386219 91.625 169.8125 C86.53466055 176.03973736 81.60495712 182.37399076 76.73925781 188.77783203 C72.00629731 195.00684327 67.18703174 201.16358576 62.33837891 207.30273438 C60.98661619 209.01697269 59.63911597 210.73447429 58.29296875 212.453125 C53.04650883 219.14957375 47.76399715 225.8146031 42.42578125 232.43823242 C39.96589105 235.50065121 37.54494386 238.58242701 35.1953125 241.73046875 C34.52834351 242.61980103 34.52834351 242.61980103 33.84790039 243.52709961 C32.64249651 245.14277581 31.44780942 246.76643186 30.25390625 248.390625 C27.04482068 252.10582285 24.49967431 253.80559777 19.625 254.4375 C14.99971407 253.87927584 12.80299829 252.68446938 9 250 C0.24610256 236.77443834 5.95423518 202.54681028 5.9765625 187.29296875 C5.97844918 185.0203045 5.98015918 182.7476401 5.98168945 180.47497559 C5.98576334 174.98331362 5.99199099 169.49165756 6 164 C4.05014442 164.00999275 4.05014442 164.00999275 2.06089783 164.02018738 C-10.19544433 164.08102885 -22.4517558 164.12598734 -34.70821476 164.15543652 C-41.00923525 164.17108564 -47.31013372 164.19231051 -53.61108398 164.22631836 C-59.69298437 164.25893815 -65.77476746 164.27685869 -71.85674858 164.28463173 C-74.17595707 164.29017049 -76.49515921 164.30098631 -78.8143177 164.31719017 C-82.06523589 164.3389988 -85.3156707 164.34196542 -88.56665039 164.34057617 C-89.523311 164.351362 -90.47997162 164.36214783 -91.46562195 164.3732605 C-99.53152766 164.33601561 -105.38359293 162.30086118 -111.421875 156.79296875 C-115.85871744 151.75210073 -117.70185514 145.8257954 -117.30078125 139.16796875 C-115.9865929 129.69557223 -109.84507706 123.17098161 -104 116 C-103.4961377 115.38060547 -102.99227539 114.76121094 -102.47314453 114.12304688 C-100.32967845 111.49008573 -98.18533543 108.85788558 -96.03417969 106.23120117 C-92.04022634 101.33679925 -88.18546383 96.35060992 -84.375 91.3125 C-80.07997292 85.63901222 -75.65726079 80.12998906 -71.01855469 74.73486328 C-67.30170729 70.39943975 -63.76706965 65.94060384 -60.26074219 61.43408203 C-56.77802147 56.96594034 -53.21499028 52.56973075 -49.625 48.1875 C-44.57920771 42.01817796 -39.70886104 35.73405626 -34.89526367 29.38256836 C-29.53366879 22.33322959 -23.96375744 15.45875901 -18.32373047 8.63085938 C-17.14006288 7.17255995 -16.00583758 5.67445011 -14.87890625 4.171875 C-10.78520094 -0.56014195 -5.95147295 -0.87146568 0 0 Z " fill="#2FAF76" transform="translate(209,89)"/>
<path d="M0 0 C3.6150737 2.15366093 5.41407971 4.15588156 7 8 C7.28520203 10.29655457 7.28520203 10.29655457 7.3347168 12.84448242 C7.36936287 14.28068184 7.36936287 14.28068184 7.40470886 15.74589539 C7.41939713 16.7720546 7.43408539 17.79821381 7.44921875 18.85546875 C7.47095657 19.91284744 7.4926944 20.97022614 7.51509094 22.05964661 C7.55896334 24.29122581 7.59817318 26.52290086 7.63305664 28.75463867 C7.68746102 32.18504201 7.75759987 35.61485761 7.83007812 39.04492188 C7.87071868 41.2109203 7.91046331 43.37693577 7.94921875 45.54296875 C7.98036018 47.0913166 7.98036018 47.0913166 8.01213074 48.67094421 C8.02577164 49.61895401 8.03941254 50.56696381 8.0534668 51.54370117 C8.06741989 52.38213058 8.08137299 53.22056 8.0957489 54.08439636 C8 56 8 56 7 57 C6.9046081 58.37876025 6.87811378 59.76236916 6.87974548 61.14442444 C6.87837082 62.03769943 6.87699615 62.93097443 6.87557983 63.85131836 C6.87917511 64.83890137 6.88277039 65.82648438 6.88647461 66.84399414 C6.88632858 67.87801865 6.88618256 68.91204315 6.8860321 69.97740173 C6.88673173 73.41334086 6.89452642 76.84922653 6.90234375 80.28515625 C6.90420775 82.66027293 6.90563174 85.03539 6.90663147 87.4105072 C6.91045803 93.67576144 6.9202895 99.94099267 6.93133545 106.20623779 C6.9415466 112.5938689 6.94612845 118.98150371 6.95117188 125.36914062 C6.96191164 137.91277026 6.97879873 150.45638391 7 163 C-6.69958353 163.20031044 -20.39927976 163.38401853 -34.09936619 163.54658794 C-40.46099993 163.6225976 -46.82245373 163.70430456 -53.18383789 163.79907227 C-59.32396633 163.89033356 -65.46411512 163.9665763 -71.60456657 164.03244972 C-73.94615563 164.06020127 -76.28768723 164.0933459 -78.62912178 164.13199425 C-81.91104278 164.18524145 -85.19264531 164.21923503 -88.47485352 164.2487793 C-89.92387054 164.27898415 -89.92387054 164.27898415 -91.40216064 164.30979919 C-99.51821039 164.34842179 -105.34660529 162.33459991 -111.421875 156.79296875 C-115.85871744 151.75210073 -117.70185514 145.8257954 -117.30078125 139.16796875 C-115.9865929 129.69557223 -109.84507706 123.17098161 -104 116 C-103.4961377 115.38060547 -102.99227539 114.76121094 -102.47314453 114.12304688 C-100.32967845 111.49008573 -98.18533543 108.85788558 -96.03417969 106.23120117 C-92.04022634 101.33679925 -88.18546383 96.35060992 -84.375 91.3125 C-80.07997292 85.63901222 -75.65726079 80.12998906 -71.01855469 74.73486328 C-67.30170729 70.39943975 -63.76706965 65.94060384 -60.26074219 61.43408203 C-56.77802147 56.96594034 -53.21499028 52.56973075 -49.625 48.1875 C-44.57920771 42.01817796 -39.70886104 35.73405626 -34.89526367 29.38256836 C-29.53366879 22.33322959 -23.96375744 15.45875901 -18.32373047 8.63085938 C-17.14006288 7.17255995 -16.00583758 5.67445011 -14.87890625 4.171875 C-10.78520094 -0.56014195 -5.95147295 -0.87146568 0 0 Z " fill="#3DCE8D" transform="translate(209,89)"/>
<path d="M0 0 C1.125 1.625 1.125 1.625 2 4 C1.69191406 4.90105469 1.38382812 5.80210937 1.06640625 6.73046875 C-0.08122096 10.24901809 -0.23461024 13.00005267 -0.1875 16.6875 C-0.18105469 17.80511719 -0.17460938 18.92273438 -0.16796875 20.07421875 C-0.1242482 23.06281151 -0.1242482 23.06281151 1 26 C3.01508358 26.73323796 3.01508358 26.73323796 5 27 C5.33 28.32 5.66 29.64 6 31 C43.62 31 81.24 31 120 31 C120 32.32 120 33.64 120 35 C106.30041647 35.20031044 92.60072024 35.38401853 78.90063381 35.54658794 C72.53900007 35.6225976 66.17754627 35.70430456 59.81616211 35.79907227 C53.67603367 35.89033356 47.53588488 35.9665763 41.39543343 36.03244972 C39.05384437 36.06020127 36.71231277 36.0933459 34.37087822 36.13199425 C31.08895722 36.18524145 27.80735469 36.21923503 24.52514648 36.2487793 C23.07612946 36.27898415 23.07612946 36.27898415 21.59783936 36.30979919 C13.48178961 36.34842179 7.65339471 34.33459991 1.578125 28.79296875 C-2.86392481 23.74618444 -4.64003897 17.86998756 -4.3359375 11.21484375 C-3.76859123 7.4743166 -2.731751 2.731751 0 0 Z " fill="#40C58B" transform="translate(96,217)"/>
<path d="M0 0 C0.33 0 0.66 0 1 0 C1 10.56 1 21.12 1 32 C22.78 32 44.56 32 67 32 C66.505 32.99 66.505 32.99 66 34 C62.9375 34.625 62.9375 34.625 60 35 C60 35.33 60 35.66 60 36 C37.42132952 37.58645614 37.42132952 37.58645614 29.23046875 36.5 C24.9117702 35.93343054 20.66343722 35.85167058 16.3125 35.875 C15.57966797 35.87113281 14.84683594 35.86726563 14.09179688 35.86328125 C6.8917061 35.62449587 6.8917061 35.62449587 1 39 C-0.06378669 34.68227756 -0.1294216 30.49257744 -0.09765625 26.07421875 C-0.0962413 25.32662796 -0.09482635 24.57903717 -0.09336853 23.80879211 C-0.08779764 21.43498635 -0.0752506 19.06127697 -0.0625 16.6875 C-0.05748123 15.07226699 -0.05291899 13.4570325 -0.04882812 11.84179688 C-0.03783775 7.89449445 -0.02059332 3.94726353 0 0 Z " fill="#356F55" transform="translate(215,146)"/>
<path d="M0 0 C1.20140625 -0.00128906 2.4028125 -0.00257813 3.640625 -0.00390625 C4.9090625 -0.00003906 6.1775 0.00382813 7.484375 0.0078125 C8.70640625 0.00394531 9.9284375 0.00007812 11.1875 -0.00390625 C36.57456888 0.02298683 36.57456888 0.02298683 43.234375 5.1328125 C45.296875 7.6328125 45.296875 7.6328125 46.234375 10.1328125 C45.921875 12.4453125 45.921875 12.4453125 45.234375 14.1328125 C43.914375 14.1328125 42.594375 14.1328125 41.234375 14.1328125 C40.739375 10.6678125 40.739375 10.6678125 40.234375 7.1328125 C39.1825 6.9884375 38.130625 6.8440625 37.046875 6.6953125 C34.96898183 6.3887381 32.89212005 6.06146293 30.8359375 5.6328125 C21.4234989 3.82381529 11.77573407 4.02864919 2.234375 4.1328125 C-6.50083347 4.22817504 -15.0709388 4.02457519 -23.765625 3.1328125 C-23.765625 2.8028125 -23.765625 2.4728125 -23.765625 2.1328125 C-21.94224609 2.04193359 -21.94224609 2.04193359 -20.08203125 1.94921875 C-18.49738272 1.86482918 -16.91274798 1.7801804 -15.328125 1.6953125 C-14.52568359 1.65599609 -13.72324219 1.61667969 -12.89648438 1.57617188 C-8.1399536 1.31526512 -4.75424228 0.00494204 0 0 Z " fill="#4D9979" transform="translate(287.765625,177.8671875)"/>
<path d="M0 0 C35.64 0 71.28 0 108 0 C108.495 0.99 108.495 0.99 109 2 C95.23134076 2.20060621 81.46254457 2.38371573 67.69338512 2.54658794 C61.30025188 2.62272423 54.90729364 2.70450923 48.5144043 2.79907227 C42.34835675 2.89007424 36.18228812 2.9664098 30.01592445 3.03244972 C27.6598664 3.06028496 25.30386538 3.09346253 22.94795799 3.13199425 C19.65564322 3.18494103 16.36364011 3.2191248 13.07104492 3.2487793 C12.09065247 3.26891586 11.11026001 3.28905243 10.10015869 3.30979919 C9.20413437 3.31408936 8.30811005 3.31837952 7.38493347 3.32279968 C6.6060184 3.33293941 5.82710333 3.34307913 5.02458477 3.35352612 C3 3 3 3 0 0 Z " fill="#5CC194" transform="translate(107,250)"/>
<path d="M0 0 C0.66 0.33 1.32 0.66 2 1 C1.54625 1.391875 1.0925 1.78375 0.625 2.1875 C-1.12860891 3.92245864 -1.12860891 3.92245864 -1.85546875 6.28125 C-3.1654579 9.39303309 -4.83789846 11.67333606 -6.9375 14.3125 C-7.97197266 15.63701172 -7.97197266 15.63701172 -9.02734375 16.98828125 C-9.67832031 17.65214844 -10.32929688 18.31601563 -11 19 C-11.99 19 -12.98 19 -14 19 C-14 19.66 -14 20.32 -14 21 C-14.66 21 -15.32 21 -16 21 C-16.165 22.010625 -16.33 23.02125 -16.5 24.0625 C-17.72886529 28.50600564 -20.54554244 30.32052017 -24.046875 33.09765625 C-26.23630787 35.23016387 -27.05245144 36.97206419 -28.125 39.8125 C-29.66129924 43.84101801 -29.66129924 43.84101801 -33.0625 45.4375 C-34.5165625 45.7159375 -34.5165625 45.7159375 -36 46 C-36.99 46.66 -37.98 47.32 -39 48 C-37.70891619 45.23344582 -36.2935196 42.95037933 -34.34765625 40.6015625 C-33.82397461 39.96436279 -33.30029297 39.32716309 -32.76074219 38.6706543 C-32.20032227 37.99558838 -31.63990234 37.32052246 -31.0625 36.625 C-29.88055198 35.18698515 -28.69957913 33.74816828 -27.51953125 32.30859375 C-26.92736816 31.58655762 -26.33520508 30.86452148 -25.72509766 30.12060547 C-23.19278196 27.00771358 -20.7182991 23.85122556 -18.25 20.6875 C-14.87554635 16.37847896 -11.49313281 12.07700603 -8.0625 7.8125 C-7.37285156 6.95269531 -6.68320313 6.09289062 -5.97265625 5.20703125 C-4.11858301 3.13267209 -2.28669276 1.57050263 0 0 Z " fill="#3BA278" transform="translate(174,121)"/>
<path d="M0 0 C0 2.66666667 0 5.33333333 0 8 C-1.32 8 -2.64 8 -4 8 C-8.80076385 12.46653345 -11.77555575 17.60568001 -13 24 C-13.99 24 -14.98 24 -16 24 C-16 24.99 -16 25.98 -16 27 C-16.66 27 -17.32 27 -18 27 C-18 27.99 -18 28.98 -18 30 C-19.65002828 31.35386936 -21.3174387 32.68678142 -23 34 C-23.33 34.99 -23.66 35.98 -24 37 C-25.6436814 38.68933922 -27.3142876 40.35259924 -29 42 C-29.88449916 43.09657205 -30.75969749 44.20071738 -31.625 45.3125 C-32.40875 46.199375 -33.1925 47.08625 -34 48 C-34.99 48 -35.98 48 -37 48 C-35.64958426 45.09982143 -34.11080498 42.69198539 -32.125 40.1875 C-31.50109375 39.39730469 -30.8771875 38.60710937 -30.234375 37.79296875 C-28.60146973 35.75183717 -26.96610535 33.71283107 -25.328125 31.67578125 C-24.34364262 30.45060711 -23.35927144 29.22534361 -22.375 28 C-21.87057373 27.37279053 -21.36614746 26.74558105 -20.84643555 26.09936523 C-16.2213282 20.32571715 -11.72961035 14.45420521 -7.27685547 8.546875 C-6.7613916 7.86625 -6.24592773 7.185625 -5.71484375 6.484375 C-5.03603149 5.58283691 -5.03603149 5.58283691 -4.34350586 4.66308594 C-2.99109527 2.98897711 -1.54853678 1.49255187 0 0 Z " fill="#44A97F" transform="translate(134,169)"/>
<path d="M0 0 C0.33 0 0.66 0 1 0 C1.6805973 15.34240085 2.15600716 30.64196151 2 46 C2.66 46 3.32 46 4 46 C3.84152588 46.4940332 3.68305176 46.98806641 3.51977539 47.49707031 C2.79279058 50.99779755 2.76349754 54.48527031 2.68359375 58.046875 C2.66281265 58.81807678 2.64203156 59.58927856 2.62062073 60.3838501 C2.55541428 62.83914572 2.49637516 65.29454521 2.4375 67.75 C2.39428726 69.41797935 2.3506721 71.08594832 2.30664062 72.75390625 C2.19976264 76.83583196 2.09841434 80.91786182 2 85 C1.34 85 0.68 85 0 85 C0 56.95 0 28.9 0 0 Z " fill="#55C492" transform="translate(213,96)"/>
<path d="M0 0 C0.33 0.99 0.66 1.98 1 3 C0.34 3 -0.32 3 -1 3 C-1.33 3.99 -1.66 4.98 -2 6 C-2.99 5.67 -3.98 5.34 -5 5 C-5.12375 5.680625 -5.2475 6.36125 -5.375 7.0625 C-5.58125 8.031875 -5.7875 9.00125 -6 10 C-6.309375 11.6396875 -6.309375 11.6396875 -6.625 13.3125 C-9.08760601 19.91676159 -14.24682573 25.00474009 -20 29 C-20.99 29.33 -21.98 29.66 -23 30 C-23 29.01 -23 28.02 -23 27 C-22.34 27 -21.68 27 -21 27 C-20.67 26.01 -20.34 25.02 -20 24 C-19.34 24 -18.68 24 -18 24 C-17.8453125 22.3603125 -17.8453125 22.3603125 -17.6875 20.6875 C-16.81910728 16.02975724 -16.81910728 16.02975724 -14 14 C-13.34 13.67 -12.68 13.34 -12 13 C-11.87625 12.360625 -11.7525 11.72125 -11.625 11.0625 C-11 9 -11 9 -8.9375 7.75 C-8.298125 7.5025 -7.65875 7.255 -7 7 C-7.33 5.68 -7.66 4.36 -8 3 C-7.34 3 -6.68 3 -6 3 C-5.67 2.34 -5.34 1.68 -5 1 C-2.4375 0.375 -2.4375 0.375 0 0 Z " fill="#43C58B" transform="translate(305,247)"/>
<path d="M0 0 C3.40095718 0.07654888 4.60728927 0.32721488 7.625 2.125 C10.81817571 5.60846441 11.94106569 8.24030721 11.91455078 12.95996094 C11.91439972 13.86059265 11.91424866 14.76122437 11.91409302 15.68914795 C11.90377045 16.65282288 11.89344788 17.6164978 11.8828125 18.609375 C11.8799826 19.60253723 11.87715271 20.59569946 11.87423706 21.61895752 C11.86305143 24.78776144 11.83794962 27.95628165 11.8125 31.125 C11.80246812 33.2747355 11.79334263 35.42447543 11.78515625 37.57421875 C11.76311741 42.84124246 11.72965584 48.10810096 11.6875 53.375 C11.3575 53.375 11.0275 53.375 10.6875 53.375 C9.71772277 38.03173879 9.56962284 22.74618107 9.6875 7.375 C8.6975 7.375 7.7075 7.375 6.6875 7.375 C6.23761719 6.90449219 5.78773438 6.43398437 5.32421875 5.94921875 C3.16203399 3.86959951 1.43026975 3.68222087 -1.5 3.1875 C-2.85158203 2.94966797 -2.85158203 2.94966797 -4.23046875 2.70703125 C-4.91753906 2.59746094 -5.60460937 2.48789063 -6.3125 2.375 C-3.93025072 -0.00724928 -3.2622963 0.05482851 0 0 Z " fill="#34795B" transform="translate(204.3125,88.625)"/>
<path d="M0 0 C0.33 0 0.66 0 1 0 C1.0249869 6.00992541 1.04299384 12.01981963 1.05493164 18.02978516 C1.05991594 20.06820198 1.06670579 22.10661532 1.07543945 24.14501953 C1.12273461 35.47916523 1.08293156 46.70674528 0 58 C-0.66 58 -1.32 58 -2 58 C-2 44.8 -2 31.6 -2 18 C-1.67 18 -1.34 18 -1 18 C-0.505 9.09 -0.505 9.09 0 0 Z " fill="#2E7F5C" transform="translate(218,276)"/>
<path d="M0 0 C1.125 1.625 1.125 1.625 2 4 C1.69191406 4.90105469 1.38382812 5.80210937 1.06640625 6.73046875 C-0.08122096 10.24901809 -0.23461024 13.00005267 -0.1875 16.6875 C-0.18105469 17.80511719 -0.17460938 18.92273438 -0.16796875 20.07421875 C-0.1242482 23.06281151 -0.1242482 23.06281151 1 26 C3.01508358 26.73323796 3.01508358 26.73323796 5 27 C5.33 28.32 5.66 29.64 6 31 C7.65 31 9.3 31 11 31 C11 31.66 11 32.32 11 33 C11.66 33.66 12.32 34.32 13 35 C7.63206308 34.17416355 3.90828132 30.94956683 0.25 27.125 C-3.87320591 21.39832512 -4.79125602 15.91185409 -4 9 C-2.09302326 2.09302326 -2.09302326 2.09302326 0 0 Z " fill="#469772" transform="translate(96,217)"/>
<path d="M0 0 C1.670625 0.061875 1.670625 0.061875 3.375 0.125 C2.4778125 0.4034375 2.4778125 0.4034375 1.5625 0.6875 C-1.16647391 2.48082571 -1.58696361 4.34961179 -2.71484375 7.3203125 C-4.26468495 10.39338819 -6.92431755 12.08570917 -9.625 14.125 C-10.3675 14.888125 -11.11 15.65125 -11.875 16.4375 C-13.625 18.125 -13.625 18.125 -15.625 18.125 C-15.955 18.785 -16.285 19.445 -16.625 20.125 C-17.285 19.795 -17.945 19.465 -18.625 19.125 C-16.50242559 16.33148152 -14.3765292 13.54050878 -12.25 10.75 C-11.64671875 9.9559375 -11.0434375 9.161875 -10.421875 8.34375 C-9.84179688 7.58320312 -9.26171875 6.82265625 -8.6640625 6.0390625 C-8.12990723 5.3373291 -7.59575195 4.6355957 -7.04541016 3.91259766 C-4.04739008 0.13956518 -4.04739008 0.13956518 0 0 Z " fill="#4CC490" transform="translate(199.625,90.875)"/>
<path d="M0 0 C0.99 0.33 1.98 0.66 3 1 C4.82325556 7.71799548 5.64911917 13.39737304 3 20 C1.0625 22.5625 1.0625 22.5625 -1 24 C-1.99 24 -2.98 24 -4 24 C-3.64031174 20.76280569 -3.3970086 19.36091691 -0.9375 17.125 C1.36740483 15.02940048 1.36740483 15.02940048 1.3125 11.375 C1.21827345 8.13417675 1.21827345 8.13417675 0 6 C-0.039992 4.00039988 -0.04346799 1.99952758 0 0 Z " fill="#4BAC82" transform="translate(335,191)"/>
<path d="M0 0 C0.66 0.33 1.32 0.66 2 1 C1.54625 1.391875 1.0925 1.78375 0.625 2.1875 C-1.12860891 3.92245864 -1.12860891 3.92245864 -1.85546875 6.28125 C-3.1654579 9.39303309 -4.83789846 11.67333606 -6.9375 14.3125 C-7.62714844 15.19550781 -8.31679687 16.07851562 -9.02734375 16.98828125 C-9.67832031 17.65214844 -10.32929688 18.31601563 -11 19 C-11.99 19 -12.98 19 -14 19 C-14.33 18.01 -14.66 17.02 -15 16 C-13.3439949 13.68457665 -11.69105173 11.62071797 -9.8125 9.5 C-9.31685547 8.91863281 -8.82121094 8.33726562 -8.31054688 7.73828125 C-5.75020359 4.7822178 -3.2758765 2.18912988 0 0 Z " fill="#4AC491" transform="translate(174,121)"/>
<path d="M0 0 C0.33 0 0.66 0 1 0 C1 14.52 1 29.04 1 44 C0.67 44 0.34 44 0 44 C-0.33 42.02 -0.66 40.04 -1 38 C-1.33 38 -1.66 38 -2 38 C-2 31.4 -2 24.8 -2 18 C-1.34 18 -0.68 18 0 18 C0 12.06 0 6.12 0 0 Z " fill="#36A085" transform="translate(217,264)"/>
<path d="M0 0 C0 3.65732847 -0.82736468 4.41659304 -3.0625 7.23046875 C-3.69414062 8.03291016 -4.32578125 8.83535156 -4.9765625 9.66210938 C-5.97816406 10.91217773 -5.97816406 10.91217773 -7 12.1875 C-7.66773438 13.03248047 -8.33546875 13.87746094 -9.0234375 14.74804688 C-10.67590433 16.83723708 -12.33491725 18.92086077 -14 21 C-14.5534764 18.92446352 -15 17.15634036 -15 15 C-13.68 15 -12.36 15 -11 15 C-11 13.68 -11 12.36 -11 11 C-9.68 10.34 -8.36 9.68 -7 9 C-7 7.68 -7 6.36 -7 5 C-6.01 4.34 -5.02 3.68 -4 3 C-2.66209359 2.00612666 -1.32781878 1.0073108 0 0 Z " fill="#3B9371" transform="translate(288,272)"/>
<path d="M0 0 C0 2.66666667 0 5.33333333 0 8 C-1.32 8 -2.64 8 -4 8 C-5.98541975 9.86323462 -5.98541975 9.86323462 -7.6875 12.3125 C-8.28949219 13.11300781 -8.89148438 13.91351563 -9.51171875 14.73828125 C-11.14701943 17.0121885 -11.14701943 17.0121885 -12 20 C-12.66 20 -13.32 20 -14 20 C-14 20.66 -14 21.32 -14 22 C-15.98 22.99 -15.98 22.99 -18 24 C-16.62756503 21.0594196 -15.03866503 18.5699331 -13.06640625 15.99609375 C-12.2165918 14.88524414 -12.2165918 14.88524414 -11.34960938 13.75195312 C-10.75986328 12.98818359 -10.17011719 12.22441406 -9.5625 11.4375 C-8.97662109 10.66986328 -8.39074219 9.90222656 -7.78710938 9.11132812 C-5.32137938 5.90112119 -2.92278269 2.81043091 0 0 Z " fill="#277556" transform="translate(134,169)"/>
<path d="M0 0 C0 4.17387731 -2.24449606 6.13187328 -5 9 C-7.73916817 11.41307672 -9.5354063 12.84513543 -13 14 C-13 13.01 -13 12.02 -13 11 C-12.34 11 -11.68 11 -11 11 C-10.67 10.01 -10.34 9.02 -10 8 C-9.34 8 -8.68 8 -8 8 C-7.79375 7.236875 -7.5875 6.47375 -7.375 5.6875 C-5.57929296 2.17770897 -3.56863688 1.47400219 0 0 Z " fill="#41A37C" transform="translate(295,263)"/>
<path d="M0 0 C5.94 0 11.88 0 18 0 C18 0.33 18 0.66 18 1 C20.31 1.33 22.62 1.66 25 2 C25 2.33 25 2.66 25 3 C16.75 3 8.5 3 0 3 C0 2.01 0 1.02 0 0 Z " fill="#417A5F" transform="translate(217,178)"/>
<path d="M0 0 C0 3.37729153 -0.37411207 3.83838882 -2.40625 6.35546875 C-2.90253906 6.97744141 -3.39882813 7.59941406 -3.91015625 8.24023438 C-4.43480469 8.88283203 -4.95945312 9.52542969 -5.5 10.1875 C-6.28697266 11.16879883 -6.28697266 11.16879883 -7.08984375 12.16992188 C-8.38675581 13.7851669 -9.69254664 15.39327566 -11 17 C-11.97918775 13.92443042 -12.1498998 13.31407577 -10.6875 10.25 C-10.130625 9.5075 -9.57375 8.765 -9 8 C-8.34 8 -7.68 8 -7 8 C-7 7.01 -7 6.02 -7 5 C-5.68 4.34 -4.36 3.68 -3 3 C-3 2.34 -3 1.68 -3 1 C-2.01 0.67 -1.02 0.34 0 0 Z " fill="#3C9773" transform="translate(334,214)"/>
<path d="M0 0 C0.33 0.66 0.66 1.32 1 2 C1.66 2 2.32 2 3 2 C1.52202738 5.67056937 -0.47615477 7.41085783 -3.625 9.75 C-4.44226563 10.36359375 -5.25953125 10.9771875 -6.1015625 11.609375 C-6.72804688 12.06828125 -7.35453125 12.5271875 -8 13 C-8 9.00717059 -6.52191924 7.84668408 -4 4.8125 C-3.2575 3.91144531 -2.515 3.01039063 -1.75 2.08203125 C-1.1725 1.39496094 -0.595 0.70789063 0 0 Z " fill="#4CC48E" transform="translate(131,175)"/>
<path d="M0 0 C0 3.47098534 -0.4976094 3.98146145 -2.625 6.57421875 C-3.16640625 7.24130859 -3.7078125 7.90839844 -4.265625 8.59570312 C-4.83796875 9.28599609 -5.4103125 9.97628906 -6 10.6875 C-6.57234375 11.38939453 -7.1446875 12.09128906 -7.734375 12.81445312 C-9.14983828 14.54839564 -10.5718353 16.27651667 -12 18 C-12 14.79604584 -11.25664978 12.90600261 -10 10 C-9.34 10 -8.68 10 -8 10 C-8 8.68 -8 7.36 -8 6 C-6.25 4.296875 -6.25 4.296875 -4 2.75 C-2.88625 1.96882813 -2.88625 1.96882813 -1.75 1.171875 C-0.88375 0.59179688 -0.88375 0.59179688 0 0 Z " fill="#318161" transform="translate(263,304)"/>
<path d="M0 0 C0.99 0 1.98 0 3 0 C2.45230629 4.18238834 0.10111111 6.59868545 -2.5625 9.75 C-3.80193359 11.22726562 -3.80193359 11.22726562 -5.06640625 12.734375 C-5.70449219 13.48203125 -6.34257812 14.2296875 -7 15 C-7.76441135 12.3775669 -8.02378361 11.11099018 -7.4375 8.375 C-6 6 -6 6 -2.875 4.6875 C-1.92625 4.460625 -0.9775 4.23375 0 4 C0 2.68 0 1.36 0 0 Z " fill="#4AA57D" transform="translate(306,246)"/>
<path d="M0 0 C0.33 1.32 0.66 2.64 1 4 C0.34 4 -0.32 4 -1 4 C-1.165 4.680625 -1.33 5.36125 -1.5 6.0625 C-3.71301627 10.39632353 -7.25519489 12.97802936 -11 16 C-11 11.61381654 -8.26543217 9.44824189 -5.5 6.3125 C-4.97535156 5.70599609 -4.45070312 5.09949219 -3.91015625 4.47460938 C-2.61333098 2.97736565 -1.30750638 1.48792528 0 0 Z " fill="#3F8E6A" transform="translate(159,138)"/>
<path d="M0 0 C0 6.04721379 -2.98158948 9.78556945 -7 14 C-7.99 14 -8.98 14 -10 14 C-8.51872621 10.74715253 -6.65319465 8.11102873 -4.4375 5.3125 C-3.81746094 4.52488281 -3.19742188 3.73726562 -2.55859375 2.92578125 C-1 1 -1 1 0 0 Z " fill="#328461" transform="translate(107,203)"/>
<path d="M0 0 C1.5 1.375 1.5 1.375 3 3 C3 3.66 3 4.32 3 5 C4.32 5.33 5.64 5.66 7 6 C7.33 7.32 7.66 8.64 8 10 C9.65 10 11.3 10 13 10 C13 10.66 13 11.32 13 12 C13.66 12.66 14.32 13.32 15 14 C9.65265445 13.17733145 5.61134622 9.90778663 2.125 5.9375 C0 3 0 3 0 0 Z " fill="#307F5E" transform="translate(94,238)"/>
<path d="M0 0 C0.66 0 1.32 0 2 0 C2.33 0.99 2.66 1.98 3 3 C1.35 3.33 -0.3 3.66 -2 4 C-2 4.99 -2 5.98 -2 7 C-2.66 7 -3.32 7 -4 7 C-4.33 8.32 -4.66 9.64 -5 11 C-5.6875 7.6875 -5.6875 7.6875 -6 4 C-4.5625 2.0625 -4.5625 2.0625 -3 1 C-2.34 1.33 -1.68 1.66 -1 2 C-0.67 1.34 -0.34 0.68 0 0 Z " fill="#41CA8E" transform="translate(329,215)"/>
<path d="M0 0 C0.33 0.66 0.66 1.32 1 2 C0.34 2.66 -0.32 3.32 -1 4 C-6.75 2.375 -6.75 2.375 -9 -1 C-5.39416086 -2.33549598 -3.37916196 -1.73524533 0 0 Z " fill="#44AF7E" transform="translate(232,339)"/>
<path d="M0 0 C1.32 0 2.64 0 4 0 C4 0.99 4 1.98 4 3 C7.22515763 4.73662334 10.51329166 5.8905928 14 7 C14 7.33 14 7.66 14 8 C9.05186827 7.88141732 5.9074357 7.72224474 1.9375 4.5625 C0 2 0 2 0 0 Z " fill="#327455" transform="translate(217,335)"/>
<path d="M0 0 C0.33 1.32 0.66 2.64 1 4 C-0.423125 5.0828125 -0.423125 5.0828125 -1.875 6.1875 C-4.67412562 8.49809898 -5.98517558 10.44811452 -7 14 C-7.99 13.67 -8.98 13.34 -10 13 C-6.73279209 8.61105071 -3.45101522 4.24740335 0 0 Z " fill="#3C8D6C" transform="translate(170,124)"/>
<path d="M0 0 C0.66 0.33 1.32 0.66 2 1 C0.5682479 6.01113235 -1.98445693 7.94469549 -6 11 C-6.33 10.01 -6.66 9.02 -7 8 C-5.56640625 5.95703125 -5.56640625 5.95703125 -3.5625 3.8125 C-2.90378906 3.09707031 -2.24507813 2.38164062 -1.56640625 1.64453125 C-1.04949219 1.10183594 -0.53257812 0.55914062 0 0 Z " fill="#44B986" transform="translate(264,298)"/>
<path d="M0 0 C0.66 0 1.32 0 2 0 C2.25 2.3125 2.25 2.3125 2 5 C0.1875 6.875 0.1875 6.875 -2 8 C-2.99 7.67 -3.98 7.34 -5 7 C-5 5 -5 5 -3 3 C-2.67 2.34 -2.34 1.68 -2 1 C-1.34 1.33 -0.68 1.66 0 2 C0 1.34 0 0.68 0 0 Z " fill="#43B789" transform="translate(311,239)"/>
<path d="M0 0 C0.1875 3.375 0.1875 3.375 0 7 C-3 9 -3 9 -6 9 C-5.63668534 5.73016809 -4.2451062 0 0 0 Z " fill="#49BB8A" transform="translate(337,206)"/>
<path d="M0 0 C0.99 0 1.98 0 3 0 C1.4422692 3.82352106 -0.91595258 6.29205593 -4 9 C-4.99 9 -5.98 9 -7 9 C-7.33 8.01 -7.66 7.02 -8 6 C-6.35 6 -4.7 6 -3 6 C-2.690625 5.195625 -2.38125 4.39125 -2.0625 3.5625 C-1 1 -1 1 0 0 Z " fill="#378463" transform="translate(239,332)"/>
<path d="M0 0 C1.67542976 0.28604898 3.34385343 0.61781233 5 1 C5 1.66 5 2.32 5 3 C4.01 3.495 4.01 3.495 3 4 C2.34444881 6.52733235 2.34444881 6.52733235 2 9 C-0.0625 6.6875 -0.0625 6.6875 -2 4 C-1 1 -1 1 0 0 Z " fill="#3DC086" transform="translate(267,288)"/>
<path d="M0 0 C1 2 1 2 0.3125 5.0625 C-0.120625 6.031875 -0.55375 7.00125 -1 8 C-3.0625 8.75 -3.0625 8.75 -5 9 C-5.33 9.66 -5.66 10.32 -6 11 C-6.66 10.67 -7.32 10.34 -8 10 C-5.36 6.7 -2.72 3.4 0 0 Z " fill="#3E9671" transform="translate(189,100)"/>
<path d="M0 0 C0.33 0 0.66 0 1 0 C1 6.6 1 13.2 1 20 C1.66 20 2.32 20 3 20 C2.67 21.32 2.34 22.64 2 24 C0 22 0 22 -0.22705078 19.75341797 C-0.21657715 18.84221191 -0.20610352 17.93100586 -0.1953125 16.9921875 C-0.18886719 16.00605469 -0.18242187 15.01992187 -0.17578125 14.00390625 C-0.15902344 12.97136719 -0.14226562 11.93882812 -0.125 10.875 C-0.11597656 9.83472656 -0.10695312 8.79445312 -0.09765625 7.72265625 C-0.07403747 5.14820908 -0.04110149 2.57421788 0 0 Z " fill="#47AB89" transform="translate(214,122)"/>
<path d="M0 0 C0 0.99 0 1.98 0 3 C-0.66 3 -1.32 3 -2 3 C-2.99 5.64 -3.98 8.28 -5 11 C-5.66 11 -6.32 11 -7 11 C-6.814375 10.05125 -6.62875 9.1025 -6.4375 8.125 C-5.71313368 5.10131207 -5.71313368 5.10131207 -7 3 C-4.69 2.01 -2.38 1.02 0 0 Z " fill="#44AF7F" transform="translate(255,312)"/>
<path d="M0 0 C0 3.58912412 -0.66436554 4.10857029 -3 6.6875 C-3.556875 7.31011719 -4.11375 7.93273437 -4.6875 8.57421875 C-5.120625 9.04472656 -5.55375 9.51523437 -6 10 C-6.33 8.68 -6.66 7.36 -7 6 C-6.67 6 -6.34 6 -6 6 C-5.67 4.35 -5.34 2.7 -5 1 C-3.68 1 -2.36 1 -1 1 C-0.67 0.67 -0.34 0.34 0 0 Z " fill="#348662" transform="translate(271,294)"/>
<path d="M0 0 C2.475 0.495 2.475 0.495 5 1 C6 4 6 4 5 7 C3.68 7 2.36 7 1 7 C0.67 4.69 0.34 2.38 0 0 Z " fill="#48C68F" transform="translate(328,185)"/>
<path d="M0 0 C0.66 0.33 1.32 0.66 2 1 C1.9375 2.75 1.9375 2.75 1 5 C-1.24164322 6.59501537 -3.53566643 7.74543018 -6 9 C-4.47291037 5.56404834 -2.40072955 2.88087546 0 0 Z " fill="#379D79" transform="translate(177,115)"/>
<path d="M0 0 C0.66 0 1.32 0 2 0 C1.4376049 3.26189156 0.5859495 4.91134848 -2 7 C-2.99 7.33 -3.98 7.66 -5 8 C-5 7.01 -5 6.02 -5 5 C-4.34 5 -3.68 5 -3 5 C-2.67 4.01 -2.34 3.02 -2 2 C-1.34 2 -0.68 2 0 2 C0 1.34 0 0.68 0 0 Z " fill="#44C18B" transform="translate(287,269)"/>
<path d="M0 0 C0.99 0.33 1.98 0.66 3 1 C1.44499019 4.81684226 -1.03595495 7.19195732 -4 10 C-4 8.35 -4 6.7 -4 5 C-3.01 5.495 -3.01 5.495 -2 6 C-1.34 4.02 -0.68 2.04 0 0 Z " fill="#3E9C78" transform="translate(317,232)"/>
<path d="M0 0 C0.33 0 0.66 0 1 0 C1.33 5.28 1.66 10.56 2 16 C0.68 15.34 -0.64 14.68 -2 14 C-1.34 14 -0.68 14 0 14 C0 9.38 0 4.76 0 0 Z " fill="#3FA87E" transform="translate(218,320)"/>
<path d="M0 0 C0.66 0.33 1.32 0.66 2 1 C0.8125 4.4375 0.8125 4.4375 -1 8 C-3.6875 8.9375 -3.6875 8.9375 -6 9 C-4.47291037 5.56404834 -2.40072955 2.88087546 0 0 Z " fill="#3B8364" transform="translate(196,91)"/>
<path d="M0 0 C1 3 1 3 -0.4375 6.1875 C-1.2109375 7.5796875 -1.2109375 7.5796875 -2 9 C-2.66 8.67 -3.32 8.34 -4 8 C-3.6875 5.125 -3.6875 5.125 -3 2 C-2.01 1.34 -1.02 0.68 0 0 Z " fill="#40B482" transform="translate(238,330)"/>
<path d="M0 0 C0.99 0 1.98 0 3 0 C2.38722388 2.96175123 1.74627478 4.38058783 0 7 C-0.66 7 -1.32 7 -2 7 C-1.125 1.125 -1.125 1.125 0 0 Z " fill="#43B282" transform="translate(242,325)"/>
<path d="M0 0 C2.01822917 0.06510417 4.03645833 0.13020833 6.0546875 0.1953125 C6.0546875 1.1853125 6.0546875 2.1753125 6.0546875 3.1953125 C2.7546875 2.8653125 -0.5453125 2.5353125 -3.9453125 2.1953125 C-1.9453125 0.1953125 -1.9453125 0.1953125 0 0 Z " fill="#3F926D" transform="translate(201.9453125,88.8046875)"/>
<path d="M0 0 C0.99 0 1.98 0 3 0 C2.52797514 4.24822374 0.03344482 6.19989709 -3 9 C-2.67 7.35 -2.34 5.7 -2 4 C-1.34 4 -0.68 4 0 4 C0 2.68 0 1.36 0 0 Z " fill="#42956F" transform="translate(306,246)"/>
<path d="M0 0 C1.0625 1.8125 1.0625 1.8125 2 4 C1.67 4.99 1.34 5.98 1 7 C-1.0625 7.6875 -1.0625 7.6875 -3 8 C-2.45276317 4.62537285 -1.9451 2.91765 0 0 Z " fill="#35946C" transform="translate(96,217)"/>
<path d="M0 0 C0 3 0 3 -2.5 5.6875 C-3.325 6.450625 -4.15 7.21375 -5 8 C-5 6.02 -5 4.04 -5 2 C-3.35 1.34 -1.7 0.68 0 0 Z " fill="#2B8D69" transform="translate(278,285)"/>
<path d="M0 0 C0.66 0.33 1.32 0.66 2 1 C1.01 2.98 0.02 4.96 -1 7 C-1.99 7 -2.98 7 -4 7 C-3.43628586 3.73045798 -2.50037734 2.17424117 0 0 Z " fill="#56BA8F" transform="translate(322,227)"/>
</svg>
